
<svg width="291" height="112" viewBox="0 0 291 112" fill="none" xmlns="http://www.w3.org/2000/svg">
<path d="M48.3256 77.7211H69.872C71.0007 77.7211 71.565 78.4393 71.565 79.8758V106.963C71.565 109.836 70.1285 111.272 67.2557 111.272H30.0111V96.6512H44.3241C45.9658 96.6512 46.7866 96.4973 46.7866 96.1895C46.8892 95.7791 46.9405 95.3174 46.9405 94.8044V79.414C46.9405 78.5932 47.0431 78.1315 47.2483 78.0289C47.4535 77.8237 47.8126 77.7211 48.3256 77.7211ZM24.6245 111.272H8.46467C4.9762 111.272 2.66766 110.708 1.53903 109.579C0.513011 108.45 0 106.091 0 102.5V8.77249C0 5.18141 0.513011 2.82156 1.53903 1.69294C2.66766 0.564313 4.9762 0 8.46467 0H24.6245V111.272Z" fill="#5AAA68"/>
<path d="M106.746 111.272H106.438C96.2809 111.272 90.0221 109.528 87.6623 106.039C86.5337 104.398 85.6103 102.807 84.892 101.268C84.2764 99.7293 83.866 97.3181 83.6608 94.0348C83.1478 88.0839 82.8913 81.4661 82.8913 74.1813C82.8913 66.8966 82.9426 61.6639 83.0452 58.4832C83.1478 55.1999 83.4556 51.9167 83.9686 48.6334C84.5842 45.2475 85.3537 42.8364 86.2772 41.4C87.2006 39.8609 88.5857 38.4758 90.4325 37.2446C92.2794 36.0133 94.434 35.2438 96.8965 34.936C99.3589 34.5256 102.54 34.3204 106.438 34.3204H106.746V111.272ZM147.685 86.9553V94.8044C147.685 105.783 142.093 111.272 130.909 111.272H111.517V99.7293H119.828C121.983 99.7293 123.317 99.4215 123.83 98.8058C124.343 98.0876 124.599 96.8564 124.599 95.1122V90.1873C124.599 88.6482 124.753 87.7761 125.061 87.5709C125.471 87.3657 125.728 87.2631 125.83 87.2631C125.933 87.1605 126.189 87.1092 126.6 87.1092C127.113 87.0066 127.472 86.9553 127.677 86.9553C134.346 86.9553 141.015 86.9553 147.685 86.9553ZM111.517 34.3204H129.37C136.45 34.3204 141.272 35.7055 143.837 38.4758C146.402 41.2461 147.685 45.3501 147.685 50.7881V64.3315C147.685 73.5657 142.657 78.1828 132.602 78.1828H109.978V66.6401H118.289C120.751 66.6401 122.393 66.3323 123.214 65.7167C124.137 65.101 124.599 63.9211 124.599 62.1769V50.4802C124.599 48.736 124.343 47.5561 123.83 46.9405C123.317 46.2223 121.983 45.8632 119.828 45.8632H111.517V34.3204Z" fill="#5AAA68"/>
<path d="M201.325 45.8632H193.014C189.833 45.8632 188.038 46.4275 187.627 47.5561C187.012 48.8899 186.704 50.7881 186.704 53.2505V92.3419C186.704 92.5471 186.704 93.1627 186.704 94.1887C186.704 95.2148 186.806 96.0869 187.012 96.8051C187.422 98.7545 189.423 99.7293 193.014 99.7293H201.325V111.272H186.396C182.497 111.272 179.316 111.118 176.854 110.81C174.392 110.4 172.237 109.579 170.39 108.348C168.543 107.117 167.158 105.783 166.235 104.346C165.311 102.807 164.542 100.396 163.926 97.1129C163.208 92.4958 162.849 86.0319 162.849 77.7211C162.849 69.4103 162.9 63.8185 163.003 60.9457C163.105 57.9702 163.259 54.8408 163.464 51.5576C163.772 48.2743 164.234 45.8631 164.85 44.3241C165.568 42.7851 166.44 41.2461 167.466 39.707C168.595 38.0654 170.031 36.9368 171.775 36.3212C175.571 34.9873 180.445 34.3204 186.396 34.3204H201.325V45.8632ZM235.953 110.195C235.953 110.913 235.748 111.272 235.337 111.272H222.717C216.971 111.272 212.713 109.938 209.943 107.271C207.276 104.603 205.942 100.242 205.942 94.1887V34.3204H212.252C218.716 34.3204 223.128 35.8594 225.487 38.9375C227.847 41.913 229.027 45.8632 229.027 50.7881V93.8809C229.027 97.0616 229.694 98.8571 231.028 99.2675C231.746 99.5754 232.721 99.7293 233.952 99.7293H234.722C235.542 99.7293 235.953 100.088 235.953 100.807V110.195Z" fill="#5AAA68"/>
<path d="M274.717 0H289.492C290.108 0.102601 290.415 0.51301 290.415 1.23123V10.6193C290.415 11.3375 290.005 11.6966 289.184 11.6966H282.874C278.565 11.6966 276.41 13.5948 276.41 17.3911V111.272H267.022C262.508 111.272 259.07 110.143 256.711 107.886C254.453 105.629 253.325 102.756 253.325 99.2675V46.171H245.476C242.911 46.171 241.628 44.6319 241.628 41.5539V34.3204H253.325V20.1613C253.325 12.6714 255.018 7.43866 258.403 4.4632C261.789 1.48773 267.227 0 274.717 0ZM290.569 34.3204V41.5539C290.569 44.6319 289.287 46.171 286.722 46.171H279.796V34.3204H290.569Z" fill="#5AAA68"/>
<path d="M39.7224 61.6367C42.67 73.8565 51.0213 72.977 54.8286 71.0098C56.0076 71.2875 57.0392 75.5228 57.4077 77.6057H59.9867C59.3972 73.1621 61.2149 68.1169 62.1974 66.1497C73.6928 71.1487 79.0229 56.8923 80.2511 49.1392C81.1353 46.6397 78.9001 46.2462 77.672 46.362C57.334 47.1951 56.1795 57.1237 58.1445 61.9838C62.9343 55.3879 66.9872 52.9579 70.3031 52.9579C72.9559 52.9579 72.1453 54.5779 71.4085 55.3879C63.7449 55.6657 59.3727 65.6868 58.1445 70.6627C52.6179 65.1082 49.6704 66.1497 48.9335 65.8025C48.1966 65.4554 47.4597 64.0668 48.9335 63.3724C50.1125 62.817 55.0742 64.7611 57.4077 65.8025C56.3023 55.7351 42.67 58.5123 40.8278 59.2066C39.354 59.7621 39.4768 61.0581 39.7224 61.6367Z" fill="#5AAA68"/>
</svg>
