
<svg width="177" height="102" viewBox="0 0 177 102" fill="none" xmlns="http://www.w3.org/2000/svg">
<rect width="177" height="102" fill="white"/>
<path d="M49.64 61.048H58.6C59.0693 61.048 59.304 61.3467 59.304 61.944V73.208C59.304 74.4027 58.7067 75 57.512 75H42.024V68.92H47.976C48.6587 68.92 49 68.856 49 68.728C49.0427 68.5573 49.064 68.3653 49.064 68.152V61.752C49.064 61.4107 49.1067 61.2187 49.192 61.176C49.2773 61.0907 49.4267 61.048 49.64 61.048ZM39.784 75H33.064C31.6133 75 30.6533 74.7653 30.184 74.296C29.7573 73.8267 29.544 72.8453 29.544 71.352V32.376C29.544 30.8827 29.7573 29.9013 30.184 29.432C30.6533 28.9627 31.6133 28.728 33.064 28.728H39.784V75ZM73.934 75H73.806C69.582 75 66.9793 74.2747 65.998 72.824C65.5287 72.1413 65.1447 71.48 64.846 70.84C64.59 70.2 64.4193 69.1973 64.334 67.832C64.1207 65.3573 64.014 62.6053 64.014 59.576C64.014 56.5467 64.0353 54.3707 64.078 53.048C64.1207 51.6827 64.2487 50.3173 64.462 48.952C64.718 47.544 65.038 46.5413 65.422 45.944C65.806 45.304 66.382 44.728 67.15 44.216C67.918 43.704 68.814 43.384 69.838 43.256C70.862 43.0853 72.1847 43 73.806 43H73.934V75ZM90.958 64.888V68.152C90.958 72.7173 88.6327 75 83.982 75H75.918V70.2H79.374C80.27 70.2 80.8247 70.072 81.038 69.816C81.2513 69.5173 81.358 69.0053 81.358 68.28V66.232C81.358 65.592 81.422 65.2293 81.55 65.144C81.7207 65.0587 81.8273 65.016 81.87 65.016C81.9127 64.9733 82.0193 64.952 82.19 64.952C82.4033 64.9093 82.5527 64.888 82.638 64.888C85.4113 64.888 88.1847 64.888 90.958 64.888ZM75.918 43H83.342C86.286 43 88.2913 43.576 89.358 44.728C90.4247 45.88 90.958 47.5867 90.958 49.848V55.48C90.958 59.32 88.8673 61.24 84.686 61.24H75.278V56.44H78.734C79.758 56.44 80.4407 56.312 80.782 56.056C81.166 55.8 81.358 55.3093 81.358 54.584V49.72C81.358 48.9947 81.2513 48.504 81.038 48.248C80.8247 47.9493 80.27 47.8 79.374 47.8H75.918V43ZM113.264 47.8H109.808C108.485 47.8 107.739 48.0347 107.568 48.504C107.312 49.0587 107.184 49.848 107.184 50.872V67.128C107.184 67.2133 107.184 67.4693 107.184 67.896C107.184 68.3227 107.227 68.6853 107.312 68.984C107.483 69.7947 108.315 70.2 109.808 70.2H113.264V75H107.056C105.435 75 104.112 74.936 103.088 74.808C102.064 74.6373 101.168 74.296 100.4 73.784C99.632 73.272 99.056 72.7173 98.672 72.12C98.288 71.48 97.968 70.4773 97.712 69.112C97.4133 67.192 97.264 64.504 97.264 61.048C97.264 57.592 97.2853 55.2667 97.328 54.072C97.3707 52.8347 97.4347 51.5333 97.52 50.168C97.648 48.8027 97.84 47.8 98.096 47.16C98.3947 46.52 98.7573 45.88 99.184 45.24C99.6533 44.5573 100.251 44.088 100.976 43.832C102.555 43.2773 104.581 43 107.056 43H113.264V47.8ZM127.664 74.552C127.664 74.8507 127.579 75 127.408 75H122.16C119.771 75 118 74.4453 116.848 73.336C115.739 72.2267 115.184 70.4133 115.184 67.896V43H117.808C120.496 43 122.331 43.64 123.312 44.92C124.293 46.1573 124.784 47.8 124.784 49.848V67.768C124.784 69.0907 125.061 69.8373 125.616 70.008C125.915 70.136 126.32 70.2 126.832 70.2H127.152C127.493 70.2 127.664 70.3493 127.664 70.648V74.552ZM143.784 28.728H149.928C150.184 28.7707 150.312 28.9413 150.312 29.24V33.144C150.312 33.4427 150.141 33.592 149.8 33.592H147.176C145.384 33.592 144.488 34.3813 144.488 35.96V75H140.584C138.707 75 137.277 74.5307 136.296 73.592C135.357 72.6533 134.888 71.4587 134.888 70.008V47.928H131.624C130.557 47.928 130.024 47.288 130.024 46.008V43H134.888V37.112C134.888 33.9973 135.592 31.8213 137 30.584C138.408 29.3467 140.669 28.728 143.784 28.728ZM150.376 43V46.008C150.376 47.288 149.843 47.928 148.776 47.928H145.896V43H150.376Z" fill="#5AAA68"/>
<path d="M46.0624 54.3593C47.2881 59.4409 50.761 59.0752 52.3442 58.2571C52.8345 58.3726 53.2635 60.1338 53.4167 61H54.4893C54.2441 59.1522 55 57.0541 55.4085 56.2361C60.1889 58.3149 62.4054 52.3864 62.9161 49.1623C63.2838 48.1229 62.3543 47.9593 61.8436 48.0074C53.3861 48.3539 52.906 52.4826 53.7232 54.5037C55.715 51.7608 57.4003 50.7503 58.7793 50.7503C59.8824 50.7503 59.5454 51.424 59.2389 51.7608C56.052 51.8763 54.2339 56.0436 53.7232 58.1128C51.425 55.803 50.1992 56.2361 49.8928 56.0917C49.5864 55.9473 49.2799 55.3699 49.8928 55.0812C50.3831 54.8502 52.4464 55.6586 53.4167 56.0917C52.9571 51.9052 47.2881 53.0601 46.5221 53.3488C45.9092 53.5798 45.9603 54.1187 46.0624 54.3593Z" fill="#5AAA68"/>
</svg>
